<?xml version="1.0" standalone="no"?><!DOCTYPE svg PUBLIC "-//W3C//DTD SVG 1.1//EN" "http://www.w3.org/Graphics/SVG/1.1/DTD/svg11.dtd"><svg t="1615376041516" class="icon" viewBox="0 0 1024 1024" version="1.1" xmlns="http://www.w3.org/2000/svg" p-id="852" xmlns:xlink="http://www.w3.org/1999/xlink" width="200" height="200"><defs><style type="text/css"></style></defs><path d="M582.8 932H441.2c-14.3 0-25.6-12.3-24.3-26.6l22-241.5h146.2l22 241.5c1.2 14.3-10 26.6-24.3 26.6z" fill="#FFFFFF" p-id="853"></path><path d="M582.8 947H441.2c-11 0-21.6-4.7-29.1-12.8S401 915.1 402 904.1l22-241.5c0.7-7.7 7.2-13.6 14.9-13.6h146.2c7.8 0 14.2 5.9 14.9 13.6l22 241.5c1 11-2.7 22-10.1 30.1S593.8 947 582.8 947zM452.6 679l-20.7 227.8c-0.3 3.6 1.4 6 2.4 7.2 1 1.1 3.3 3.1 6.9 3.1h141.6c3.6 0 5.9-1.9 6.9-3s2.7-3.6 2.4-7.2L571.4 679H452.6z" fill="#2B94FF" p-id="854"></path><path d="M778.1 761.4c6.7 0 13.2-0.5 19.5-1.6 47.6-7.8 66.8-66.1 33.9-101.5-91.7-98.6-312.7-335.6-312.7-335.6L193.6 655.1c-30.2 30.9-20 83.6 20.3 99 12.4 4.7 26.4 7.4 41.2 7.4 39.5 0 87.6-46.7 87.1-45.8 13.9 26.8 47.8 45.8 87.2 45.8 39.5 0 87.6-46.7 87.1-45.7 13.9 26.8 47.6 45.7 87.1 45.7 39.5 0 87.7-46.7 87.2-45.8" fill="#FFFFFF" p-id="855"></path><path d="M778.1 776.4c-8.3 0-15-6.7-15-15s6.7-15 15-15c5.8 0 11.5-0.5 17.1-1.4 16.5-2.7 29.7-13.9 35.2-30 5.6-16.4 2-33.8-9.8-46.5-79.1-85.1-256.6-275.4-302-324.1l-314.2 321c-11 11.3-15.6 27.2-12.1 42.7 3.3 14.9 13.1 26.5 27.1 31.8 11.2 4.2 23.3 6.4 35.9 6.4 18.8 0 46.5-14.9 75.8-40.9 0.5-0.4 0.9-0.8 1.1-1 6.7-5.8 14.8-4.4 19.5-0.7 1.8 1.4 3.2 3.2 4.1 5.2 11.8 22.3 41.4 37.3 73.7 37.3 18.7 0 46.3-14.8 75.7-40.7 0.5-0.5 1-0.8 1.2-1.1 6.7-5.8 14.6-4.5 19.5-0.7 1.8 1.5 3.3 3.3 4.2 5.3 11.8 22.3 41.3 37.2 73.6 37.2 18.8 0 46.5-14.9 75.9-40.9 0.5-0.4 0.9-0.8 1.1-1 6.7-5.8 14.8-4.4 19.5-0.6 5.7 4.6 7.3 12.6 3.8 19-1 1.9-2.4 3.5-4.1 4.7l-0.5 0.5c-45.3 40-77.1 48.4-95.8 48.4-36.8 0-70.3-14.7-90.2-38.5-39.1 31.5-67 38.5-84 38.5-36.8 0-70.3-14.7-90.3-38.6-39 31.6-67 38.6-84.1 38.6-16.3 0-31.9-2.8-46.5-8.4-23.2-8.8-40.3-28.8-45.7-53.3-5.6-25.4 1.9-51.6 20-70.1L508 312.2c2.8-2.9 6.7-4.5 10.7-4.5h0.2c4.1 0 8 1.8 10.8 4.8 2.2 2.4 222.1 238.1 312.7 335.6 19.1 20.6 25.4 49.9 16.2 76.6-9.1 26.7-31.1 45.3-58.7 49.8-7.1 1.3-14.4 1.9-21.8 1.9z" fill="#2B94FF" p-id="856"></path><path d="M512 188.8S344.9 340 264.8 415.2c-31.4 29.4-11.8 83.5 31.2 83.9h1c28.6 0 53.5-12.1 66.9-30.1 0 0 48 30.1 76.6 30.1 28.6 0 53.6-12.1 66.9-30.1 0 0 47.8 30.1 76.5 30.1 28.6 0 53.6-12.1 67-30.1 0 0 47.9 30.1 76.5 30.1h1.9c43.2-0.8 62.6-55 30.8-84.3-80.2-74.1-248.1-226-248.1-226z" fill="#FFFFFF" p-id="857"></path><path d="M727.5 514.1c-24 0-56.6-16.4-73.6-25.9-17.4 16.4-42.6 25.9-69.9 25.9-24 0-56.5-16.3-73.5-25.9-17.3 16.4-42.5 25.9-69.9 25.9-24 0-56.6-16.4-73.7-25.9-17.3 16.4-42.5 25.9-69.8 25.9h-1.2c-25.7-0.3-47.5-15.5-57-39.7-9.6-24.7-3.5-52.2 15.7-70.1 79.3-74.3 245.7-225 247.4-226.5 5.7-5.2 14.4-5.2 20.1 0 1.7 1.5 168.9 152.8 248.4 226.1 19.3 17.8 25.7 45.2 16.3 69.9-9.3 24.5-31.1 39.9-57 40.4-0.8-0.1-1.6-0.1-2.3-0.1zM651 454c2.7 0 5.5 0.7 8 2.3 17.1 10.7 50.9 27.8 68.6 27.8h1.6c13.6-0.3 24.6-8.1 29.5-21.1 4-10.5 3.8-25.8-8.6-37.2C682 363.1 549.5 243 512 209c-37.3 33.8-169.1 153.5-236.9 217.1-12.3 11.5-12.3 26.9-8.2 37.4 5 12.8 15.9 20.5 29.3 20.6h0.9c22.8 0 43.8-9.2 54.8-24 4.7-6.3 13.4-7.9 20-3.8 17.2 10.7 51 27.8 68.7 27.8 22.9 0 43.9-9.2 54.9-24 4.7-6.3 13.4-7.9 20-3.8 17.1 10.7 50.8 27.8 68.5 27.8 22.8 0 43.9-9.2 55-24 2.9-4 7.4-6.1 12-6.1z" fill="#2B94FF" p-id="858"></path><path d="M479.6 106.7L357.5 231.4c-14.8 15.1-9.5 40.9 10.3 48.2 5.9 2.2 12.6 3.4 19.5 3.4 19.2 0 42.5-22.7 42.3-22.2 6.7 13 23.2 22.2 42.3 22.2 19.2 0 42.5-22.7 42.3-22.2 6.7 13 23.1 22.2 42.3 22.2 19.2 0 42.6-22.7 42.3-22.2 6.7 13 23.1 22.2 42.3 22.2 3.2 0 6.3-0.3 9.3-0.7 23.2-3.7 32.6-32 16.6-49.2-28.2-30.3-81.7-87.7-117-125.6-18.9-20.3-50.9-20.7-70.4-0.8z" fill="#FFFFFF" p-id="859"></path><path d="M641.1 298.1c-17.2 0-33.3-6-44.5-16.1-11.8 8.6-26.2 16.1-40.1 16.1-17.3 0-33.3-6-44.5-16.1-11.8 8.6-26.1 16.1-40 16.1-17.3 0-33.3-6-44.6-16.1-11.8 8.6-26.1 16.1-40 16.1-8.6 0-16.9-1.5-24.7-4.3-13.9-5.1-24.2-16.9-27.5-31.6-3.4-14.9 1-30.3 11.7-41.2l122-124.8c12.3-12.6 28.8-19.4 46.3-19.2 17.6 0.2 33.8 7.4 45.8 20.2 38.2 41 89.5 96 117 125.6 11.2 12.1 14.9 29.3 9.5 44.9-5.3 15.5-18.6 26.7-34.7 29.3-3.8 0.7-7.7 1.1-11.7 1.1z m-28.8-43.9c3.7 7 14 13.9 28.8 13.9 2.3 0 4.7-0.2 6.9-0.6 7.5-1.2 10.3-7 11.1-9.5 1.8-5.2 0.6-10.7-3.1-14.7-27.5-29.6-78.8-84.6-117-125.6-6.3-6.8-14.9-10.6-24.2-10.7-9.3-0.1-18 3.5-24.5 10.2L368.2 241.9c-3.5 3.6-4.9 8.7-3.8 13.6 0.5 2.2 2.4 7.7 8.6 10 4.5 1.6 9.3 2.5 14.3 2.5 5.3 0 16.8-4.7 31.7-17.9 8-7.1 16.3-4 20-1.1 1.8 1.4 3.1 3.1 4.1 5.1 4.4 8.2 16.2 13.9 28.9 13.9 5.5 0 16.7-4.7 31.6-17.8 9.8-8.7 18.9-1.9 19.9-1.1 1.8 1.4 3.2 3.2 4.1 5.1 3.7 6.9 14 13.8 28.8 13.8 5.3 0 16.8-4.7 31.7-17.9 0.3-0.2 0.5-0.4 0.6-0.6 5.7-4.9 13.6-5.1 19.3-0.5 2 1.5 3.4 3.2 4.3 5.2zM479.6 106.7z" fill="#2B94FF" p-id="860"></path><path d="M761.8 743.6c-8.3 0-15-6.7-15-15s6.7-15 15-15c11.6 0 19-4 23.3-12.7 3.5-6.9 3.7-14.2 3.7-14.3 0-8.3 6.7-15 15-15s15 6.7 15 15c0 1.4-0.2 14.4-6.8 27.7-9.5 18.9-27.3 29.3-50.2 29.3z" fill="#FF66A4" p-id="861"></path><path d="M514.5 901.3h-54.2c-8.3 0-15-6.7-15-15s6.7-15 15-15h54.2c8.3 0 15 6.7 15 15s-6.7 15-15 15z" fill="#FF66A4" p-id="862"></path><path d="M565.8 901.3h-7c-8.3 0-15-6.7-15-15s6.7-15 15-15h7c8.3 0 15 6.7 15 15s-6.8 15-15 15z" fill="#FF66A4" p-id="863"></path><path d="M507.1 422.8h-1.3c-10.5 0.4-20.8-3.7-28.4-11.3l-17.1-17.1c-7.4-7.4-11.5-17.3-11.5-27.8s4.1-20.4 11.5-27.8c7.4-7.4 17.3-11.4 27.9-11.4 6.2 0 12.2 1.4 17.6 4.1 5.4-2.7 11.4-4.1 17.6-4.1 10.6 0 20.5 4.1 27.9 11.4 15.3 15.3 15.3 40.3 0 55.6l-17.1 17.1c-7.2 7.2-17 11.3-27.1 11.3z m-1.2-30.1h0.9c2.2 0.1 4.5-0.8 6.3-2.6l17.1-17.1c3.6-3.6 3.6-9.6 0-13.2-2.2-2.2-4.8-2.7-6.7-2.7-1.4 0-4.2 0.3-6.5 2.7l-0.5 0.5c-5.9 5.9-15.3 5.9-21.2 0l-0.5-0.5c-2.3-2.3-5.1-2.7-6.5-2.7-1.8 0-4.5 0.5-6.7 2.7-1.8 1.8-2.7 4.1-2.7 6.6s1 4.8 2.7 6.6l17.1 17.1c1.7 1.7 4.1 2.7 6.3 2.6h0.9z" fill="#2B94FF" p-id="864"></path></svg>